<svg xmlns="http://www.w3.org/2000/svg" viewBox="0 0 24 24" id="humidity"><path d="m13.71484,3.20996c-.33887-.5918-.99609-.95996-1.71484-.95996s-1.37598.36816-1.71484.95996c-2.29688,4.00488-5.03516,9.23926-5.03516,11.43555,0,3.36621,3.02832,6.10449,6.75,6.10449s6.75-2.73828,6.75-6.10449c0-2.19629-2.73828-7.43066-5.03516-11.43555Zm-1.71484,16.04004c-2.89453,0-5.25-2.06543-5.25-4.60449,0-1.41406,1.80762-5.40918,4.83594-10.68945.10938-.19141.34473-.20605.41406-.20605s.30469.01465.41406.20605c3.02832,5.28027,4.83594,9.27539,4.83594,10.68945,0,2.53906-2.35547,4.60449-5.25,4.60449Zm2.53027-7.71973l-4,4c-.14648.14648-.33789.21973-.53027.21973s-.38379-.07324-.53027-.21973c-.29297-.29297-.29297-.76758,0-1.06055l4-4c.29297-.29297.76758-.29297,1.06055,0s.29297.76758,0,1.06055Zm-5.53027-.53027c0-.55231.44769-1,1-1s1,.44769,1,1c0,.55225-.44769,1-1,1s-1-.44775-1-1Zm6,4c0,.55225-.44769,1-1,1s-1-.44775-1-1c0-.55231.44769-1,1-1s1,.44769,1,1Z"></path></svg>