<svg xmlns="http://www.w3.org/2000/svg" viewBox="0 0 24 24" id="toggle-button"><g><path d="M10.75,12a6.32,6.32,0,0,1,2.19-4.75H7a4.75,4.75,0,0,0,0,9.5h5.94A6.32,6.32,0,0,1,10.75,12Z"></path><path d="M17,7.25a4.73,4.73,0,0,0-3.45,1.5h0a2.22,2.22,0,0,0-.28.33,4.19,4.19,0,0,0-.66,1.14,3.52,3.52,0,0,0-.15.42c0,.15-.08.29-.11.44l-.06.36a5.25,5.25,0,0,0,0,.56,4.7,4.7,0,0,0,.09.92c0,.15.07.29.11.44a3.52,3.52,0,0,0,.15.42,4.19,4.19,0,0,0,.66,1.14,2.22,2.22,0,0,0,.28.33h0a4.75,4.75,0,1,0,3.45-8Z"></path></g></svg>